<svg xmlns="http://www.w3.org/2000/svg" width="85.994" height="85.995" viewBox="0 0 85.994 85.995">
  <path id="Icon_metro-moon" data-name="Icon metro-moon" d="M85.876,82.921A44.174,44.174,0,1,1,39.917,10.158,5.53,5.53,0,0,1,46.963,17.2,32.924,32.924,0,0,0,89.125,59.367a5.523,5.523,0,0,1,7.039,7.046A43.616,43.616,0,0,1,85.876,82.921ZM31.217,28.255a33.167,33.167,0,0,0,0,46.857c13.8,13.812,37.316,12.568,49.352-2.819A43.968,43.968,0,0,1,34.036,25.767a31.076,31.076,0,0,0-2.818,2.488Z" transform="translate(-10.489 -9.846)"/>
</svg>
