<svg xmlns="http://www.w3.org/2000/svg" width="80.558" height="80.541" viewBox="0 0 80.558 80.541">
  <path id="Icon_awesome-instagram" data-name="Icon awesome-instagram" d="M39.6,21.525a20.3,20.3,0,1,0,20.3,20.3A20.266,20.266,0,0,0,39.6,21.525Zm0,33.495a13.2,13.2,0,1,1,13.2-13.2,13.22,13.22,0,0,1-13.2,13.2ZM65.461,20.694a4.734,4.734,0,1,1-4.734-4.734A4.723,4.723,0,0,1,65.461,20.694ZM78.9,25.5c-.3-6.342-1.749-11.96-6.4-16.588-4.628-4.628-10.246-6.077-16.588-6.4-6.536-.371-26.128-.371-32.664,0-6.324.3-11.942,1.749-16.588,6.377S.591,19.14.273,25.482C-.1,32.018-.1,51.61.273,58.146c.3,6.342,1.749,11.96,6.4,16.588s10.246,6.077,16.588,6.4c6.536.371,26.128.371,32.664,0,6.342-.3,11.96-1.749,16.588-6.4,4.628-4.628,6.077-10.246,6.4-16.588.371-6.536.371-26.11,0-32.647ZM70.46,65.16a13.36,13.36,0,0,1-7.526,7.526c-5.211,2.067-17.578,1.59-23.337,1.59s-18.143.459-23.337-1.59A13.36,13.36,0,0,1,8.735,65.16c-2.067-5.211-1.59-17.578-1.59-23.337S6.686,23.68,8.735,18.486a13.36,13.36,0,0,1,7.526-7.526C21.472,8.893,33.838,9.37,39.6,9.37s18.143-.459,23.337,1.59a13.36,13.36,0,0,1,7.526,7.526c2.067,5.211,1.59,17.578,1.59,23.337S72.527,59.966,70.46,65.16Z" transform="translate(0.691 -1.552)" fill="#7e7e7e" stroke="#7e7e7e" stroke-width="1"/>
</svg>
