<svg xmlns="http://www.w3.org/2000/svg" width="60.95" height="79.22" viewBox="0 0 60.95 79.22">
  <path id="Icon_awesome-pinterest-p" data-name="Icon awesome-pinterest-p" d="M32.379.457C16.094.457,0,11.314,0,28.884,0,40.058,6.285,46.407,10.095,46.407c1.571,0,2.476-4.381,2.476-5.619,0-1.476-3.762-4.619-3.762-10.761,0-12.761,9.714-21.809,22.285-21.809C41.9,8.219,49.9,14.361,49.9,25.646c0,8.428-3.381,24.237-14.333,24.237a7.047,7.047,0,0,1-7.333-6.952c0-6,4.19-11.809,4.19-18,0-10.507-14.9-8.6-14.9,4.1a18.647,18.647,0,0,0,1.524,8.047C16.856,46.5,12.38,60.55,12.38,70.263c0,3,.429,5.952.714,8.952.54.6.27.54,1.1.238,8-10.952,7.714-13.095,11.333-27.427,1.952,3.714,7,5.714,11,5.714C53.379,57.74,60.95,41.312,60.95,26.5,60.95,10.742,47.331.457,32.379.457Z" transform="translate(0 -0.457)" fill="#7e7e7e"/>
</svg>
