<svg xmlns="http://www.w3.org/2000/svg" width="79.273" height="79.277" viewBox="0 0 79.273 79.277">
  <path id="Icon_awesome-sun" data-name="Icon awesome-sun" d="M39.638,24.774A14.864,14.864,0,1,0,54.5,39.638,14.888,14.888,0,0,0,39.638,24.774ZM77.79,37.238,63.127,29.915l5.187-15.546a2.677,2.677,0,0,0-3.391-3.391L49.378,16.165,42.038,1.486a2.681,2.681,0,0,0-4.8,0L29.915,16.15,14.353,10.962a2.677,2.677,0,0,0-3.391,3.391L16.15,29.9,1.486,37.238a2.681,2.681,0,0,0,0,4.8L16.15,49.362,10.962,64.923a2.677,2.677,0,0,0,3.391,3.391L29.9,63.127,37.223,77.79a2.681,2.681,0,0,0,4.8,0l7.324-14.663,15.546,5.187a2.677,2.677,0,0,0,3.391-3.391L63.1,49.378l14.663-7.324a2.684,2.684,0,0,0,.031-4.815ZM53.651,53.651a19.817,19.817,0,1,1,0-28.026A19.84,19.84,0,0,1,53.651,53.651Z"/>
</svg>
