<svg xmlns="http://www.w3.org/2000/svg" width="75.821" height="61.581" viewBox="0 0 75.821 61.581">
  <path id="Icon_awesome-twitter" data-name="Icon awesome-twitter" d="M68.028,18.728c.048.674.048,1.347.048,2.021,0,20.543-15.636,44.213-44.213,44.213A43.913,43.913,0,0,1,0,57.986a32.147,32.147,0,0,0,3.753.192,31.121,31.121,0,0,0,19.292-6.639A15.567,15.567,0,0,1,8.515,40.762,19.6,19.6,0,0,0,11.45,41a16.435,16.435,0,0,0,4.089-.529A15.542,15.542,0,0,1,3.079,25.223V25.03A15.65,15.65,0,0,0,10.1,27,15.563,15.563,0,0,1,5.292,6.219,44.171,44.171,0,0,0,37.333,22.48a17.542,17.542,0,0,1-.385-3.56A15.554,15.554,0,0,1,63.842,8.288,30.6,30.6,0,0,0,73.7,4.535,15.5,15.5,0,0,1,66.873,13.1a31.152,31.152,0,0,0,8.948-2.405,33.4,33.4,0,0,1-7.794,8.034Z" transform="translate(0 -3.381)" fill="#7e7e7e"/>
</svg>
