<?xml version="1.0" encoding="UTF-8"?><svg id="a" xmlns="http://www.w3.org/2000/svg" viewBox="0 0 181.15 234.32"><defs><style>.b{fill:#003763;}.c{fill:#81bc42;}</style></defs><g><path class="c" d="M114.2,41.68v22.85c7.22,5.96,11.81,14.97,11.81,25.06,0,17.94-14.55,32.49-32.49,32.49s-32.49-14.55-32.49-32.49c0-10.09,4.6-19.1,11.81-25.06v-22.85c-18.53,8.01-31.5,26.44-31.5,47.91,0,28.82,23.36,52.18,52.18,52.18s52.18-23.36,52.18-52.18c0-21.47-12.97-39.91-31.5-47.91Z"/><rect class="c" x="82.7" y="41.35" width="19.69" height="66.95"/></g><path class="b" d="M181.15,90.58C181.15,40.55,140.6,0,90.58,0S0,40.55,0,90.58c0,46.05,34.37,84.04,78.85,89.79l16.17-22.91c-.82,.03-1.65,.06-2.48,.06-38.06,0-68.92-30.85-68.92-68.92S54.48,19.69,92.54,19.69s68.92,30.85,68.92,68.92c0,10.96-1.11,21.25-6.25,31.16-4.21,8.12-10,15.3-15.82,22.36-24.28,29.47-45.08,60.67-66.54,92.18l27.57-1.97c16.08-23.29,31.66-47.05,48.21-69.99,14.91-20.67,32.52-45.23,32.52-71.78Z"/></svg>